<svg xmlns="http://www.w3.org/2000/svg" viewBox="0 0 1200 420" role="img" aria-labelledby="title desc">
  <title id="title">MOSEC Cybersecurity Logo</title>
  <desc id="desc">A cyan and green cybersecurity shield logo with connected nodes and the text MOSEC.</desc>
  <defs>
    <linearGradient id="shield" x1="0" x2="1" y1="0" y2="1">
      <stop offset="0%" stop-color="#38bdf8"/>
      <stop offset="54%" stop-color="#22c55e"/>
      <stop offset="100%" stop-color="#f59e0b"/>
    </linearGradient>
    <linearGradient id="text" x1="0" x2="1">
      <stop offset="0%" stop-color="#f8fafc"/>
      <stop offset="100%" stop-color="#bae6fd"/>
    </linearGradient>
    <filter id="glow" x="-20%" y="-20%" width="140%" height="140%">
      <feGaussianBlur stdDeviation="8" result="blur"/>
      <feColorMatrix in="blur" type="matrix" values="0 0 0 0 0.22 0 0 0 0 0.74 0 0 0 0 0.97 0 0 0 0.55 0"/>
      <feMerge>
        <feMergeNode/>
        <feMergeNode in="SourceGraphic"/>
      </feMerge>
    </filter>
  </defs>
  <rect width="1200" height="420" rx="42" fill="#0f172a"/>
  <path d="M0 342 C160 282 260 396 430 318 C570 254 662 326 800 264 C982 184 1042 282 1200 210 V420 H0Z" fill="#111827"/>
  <g filter="url(#glow)">
    <path d="M214 58 356 112v104c0 96-58 174-142 214-84-40-142-118-142-214V112L214 58Z" fill="#020617" stroke="url(#shield)" stroke-width="16"/>
    <path d="M144 182h140M144 254h140M184 182v72M244 182v72" stroke="url(#shield)" stroke-width="22" stroke-linecap="round"/>
    <circle cx="144" cy="182" r="20" fill="#38bdf8"/>
    <circle cx="284" cy="182" r="20" fill="#22c55e"/>
    <circle cx="184" cy="254" r="20" fill="#a78bfa"/>
    <circle cx="244" cy="254" r="20" fill="#f59e0b"/>
  </g>
  <text x="420" y="178" fill="url(#text)" font-family="Segoe UI, Arial, sans-serif" font-size="88" font-weight="900" letter-spacing="4">MOSEC</text>
  <text x="424" y="238" fill="#94a3b8" font-family="Segoe UI, Arial, sans-serif" font-size="30" font-weight="700">Bug Bounty • SOC • Cloud Security</text>
  <g fill="none" stroke="#38bdf8" stroke-width="3" opacity="0.55">
    <path d="M430 280h96l30 36h92"/>
    <path d="M742 96h78l28 34h130"/>
    <path d="M848 318h88l24-38h116"/>
  </g>
  <g fill="#22c55e">
    <circle cx="648" cy="316" r="7"/>
    <circle cx="978" cy="130" r="7"/>
    <circle cx="1076" cy="280" r="7"/>
  </g>
</svg>
